<svg width="500" height="500" viewBox="0 0 500 500" fill="none" xmlns="http://www.w3.org/2000/svg">
<rect width="500" height="500" fill="white"/>
<path d="M259.03 141.199C234.791 141.199 220.159 148.061 220.159 165.892C220.159 217.105 394.378 192.873 394.834 329.137C394.834 410.987 329.445 458.083 234.335 458.083C195.011 458.083 152.028 450.312 109.501 432.021V323.192C147.912 344.225 196.383 359.774 234.335 359.774C259.943 359.774 278.231 352.913 278.231 331.882C278.231 277.466 104.473 297.583 104.473 171.383C104.473 90.4454 166.203 41.9741 259.03 41.9741C296.982 41.9741 334.476 47.9189 372.428 63.0075V170.467C337.676 151.719 293.779 141.199 259.03 141.199Z" fill="#6772E5"/>
</svg>
